<mxfile host="app.diagrams.net" modified="2023-10-30T20:29:12.545Z" agent="Mozilla/5.0 (Windows NT 10.0; Win64; x64; rv:109.0) Gecko/20100101 Firefox/119.0" etag="Qse5LdQENfLLefiDspJb" version="22.0.8" type="github">
  <diagram name="Page-1" id="58cdce13-f638-feb5-8d6f-7d28b1aa9fa0">
    <mxGraphModel dx="2688" dy="1566" grid="1" gridSize="10" guides="1" tooltips="1" connect="1" arrows="1" fold="1" page="1" pageScale="1" pageWidth="1100" pageHeight="850" background="none" math="0" shadow="0">
      <root>
        <mxCell id="0" />
        <mxCell id="1" parent="0" />
        <mxCell id="382b91b5511bd0f7-1" value="" style="ellipse;html=1;shape=startState;fillColor=#000000;strokeColor=#ff0000;rounded=1;shadow=0;comic=0;labelBackgroundColor=none;fontFamily=Verdana;fontSize=12;fontColor=#000000;align=center;direction=south;" parent="1" vertex="1">
          <mxGeometry x="-40" y="125" width="30" height="30" as="geometry" />
        </mxCell>
        <mxCell id="382b91b5511bd0f7-6" value="Authentication UI" style="rounded=1;whiteSpace=wrap;html=1;arcSize=24;fillColor=#ffffc0;strokeColor=#ff0000;shadow=0;comic=0;labelBackgroundColor=none;fontFamily=Verdana;fontSize=12;fontColor=#000000;align=center;" parent="1" vertex="1">
          <mxGeometry x="130" y="110" width="120" height="60" as="geometry" />
        </mxCell>
        <mxCell id="2a3bc250acf0617d-9" style="edgeStyle=orthogonalEdgeStyle;html=1;labelBackgroundColor=none;endArrow=open;endSize=8;strokeColor=#ff0000;fontFamily=Verdana;fontSize=12;align=left;" parent="1" source="382b91b5511bd0f7-1" target="382b91b5511bd0f7-6" edge="1">
          <mxGeometry relative="1" as="geometry" />
        </mxCell>
        <mxCell id="VdD3YLYx9Pq02H5jU0q_-2" value="User loads page" style="edgeLabel;html=1;align=center;verticalAlign=middle;resizable=0;points=[];" parent="2a3bc250acf0617d-9" vertex="1" connectable="0">
          <mxGeometry x="-0.275" relative="1" as="geometry">
            <mxPoint as="offset" />
          </mxGeometry>
        </mxCell>
        <mxCell id="VdD3YLYx9Pq02H5jU0q_-5" style="edgeStyle=orthogonalEdgeStyle;html=1;labelBackgroundColor=none;endArrow=open;endSize=8;strokeColor=#ff0000;fontFamily=Verdana;fontSize=12;align=left;exitX=1;exitY=0.25;exitDx=0;exitDy=0;entryX=0;entryY=0.25;entryDx=0;entryDy=0;" parent="1" source="382b91b5511bd0f7-6" target="VdD3YLYx9Pq02H5jU0q_-14" edge="1">
          <mxGeometry relative="1" as="geometry">
            <mxPoint x="390" y="125.62" as="sourcePoint" />
            <mxPoint x="470" y="125" as="targetPoint" />
          </mxGeometry>
        </mxCell>
        <mxCell id="VdD3YLYx9Pq02H5jU0q_-8" value="User log in succcesfull" style="edgeLabel;html=1;align=center;verticalAlign=middle;resizable=0;points=[];" parent="VdD3YLYx9Pq02H5jU0q_-5" vertex="1" connectable="0">
          <mxGeometry x="-0.3231" relative="1" as="geometry">
            <mxPoint x="15" as="offset" />
          </mxGeometry>
        </mxCell>
        <mxCell id="VdD3YLYx9Pq02H5jU0q_-10" style="edgeStyle=orthogonalEdgeStyle;html=1;labelBackgroundColor=none;endArrow=open;endSize=8;strokeColor=#ff0000;fontFamily=Verdana;fontSize=12;align=left;entryX=1;entryY=0.75;entryDx=0;entryDy=0;exitX=0;exitY=0.75;exitDx=0;exitDy=0;" parent="1" source="VdD3YLYx9Pq02H5jU0q_-14" target="382b91b5511bd0f7-6" edge="1">
          <mxGeometry relative="1" as="geometry">
            <mxPoint x="460" y="155" as="sourcePoint" />
            <mxPoint x="290" y="160" as="targetPoint" />
          </mxGeometry>
        </mxCell>
        <mxCell id="VdD3YLYx9Pq02H5jU0q_-11" value="User log out" style="edgeLabel;html=1;align=center;verticalAlign=middle;resizable=0;points=[];" parent="VdD3YLYx9Pq02H5jU0q_-10" vertex="1" connectable="0">
          <mxGeometry x="-0.275" relative="1" as="geometry">
            <mxPoint x="-15" as="offset" />
          </mxGeometry>
        </mxCell>
        <mxCell id="VdD3YLYx9Pq02H5jU0q_-12" style="edgeStyle=orthogonalEdgeStyle;html=1;labelBackgroundColor=none;endArrow=open;endSize=8;strokeColor=#ff0000;fontFamily=Verdana;fontSize=12;align=left;entryX=0;entryY=0.5;entryDx=0;entryDy=0;exitX=0.25;exitY=1;exitDx=0;exitDy=0;" parent="1" target="9bYLnxyuJk67JNiSMp8e-47" edge="1" source="382b91b5511bd0f7-6">
          <mxGeometry relative="1" as="geometry">
            <mxPoint x="150" y="200" as="sourcePoint" />
            <mxPoint x="40" y="260" as="targetPoint" />
          </mxGeometry>
        </mxCell>
        <mxCell id="VdD3YLYx9Pq02H5jU0q_-13" value="Clicks Sign Up" style="edgeLabel;html=1;align=center;verticalAlign=middle;resizable=0;points=[];" parent="VdD3YLYx9Pq02H5jU0q_-12" vertex="1" connectable="0">
          <mxGeometry x="-0.275" relative="1" as="geometry">
            <mxPoint x="-4" y="-14" as="offset" />
          </mxGeometry>
        </mxCell>
        <mxCell id="VdD3YLYx9Pq02H5jU0q_-14" value="Main page UI" style="rounded=1;whiteSpace=wrap;html=1;arcSize=24;fillColor=#ffffc0;strokeColor=#ff0000;shadow=0;comic=0;labelBackgroundColor=none;fontFamily=Verdana;fontSize=12;fontColor=#000000;align=center;" parent="1" vertex="1">
          <mxGeometry x="375" y="110" width="120" height="60" as="geometry" />
        </mxCell>
        <mxCell id="VdD3YLYx9Pq02H5jU0q_-15" style="edgeStyle=orthogonalEdgeStyle;html=1;labelBackgroundColor=none;endArrow=open;endSize=8;strokeColor=#ff0000;fontFamily=Verdana;fontSize=12;align=left;exitX=0.5;exitY=0;exitDx=0;exitDy=0;entryX=0.5;entryY=1;entryDx=0;entryDy=0;" parent="1" source="VdD3YLYx9Pq02H5jU0q_-47" target="VdD3YLYx9Pq02H5jU0q_-21" edge="1">
          <mxGeometry relative="1" as="geometry">
            <mxPoint x="310" y="135" as="sourcePoint" />
            <mxPoint x="580" y="50" as="targetPoint" />
          </mxGeometry>
        </mxCell>
        <mxCell id="VdD3YLYx9Pq02H5jU0q_-21" value="Triage UI" style="rounded=1;whiteSpace=wrap;html=1;arcSize=24;fillColor=#ffffc0;strokeColor=#ff0000;shadow=0;comic=0;labelBackgroundColor=none;fontFamily=Verdana;fontSize=12;fontColor=#000000;align=center;" parent="1" vertex="1">
          <mxGeometry x="525" y="-20" width="120" height="60" as="geometry" />
        </mxCell>
        <mxCell id="VdD3YLYx9Pq02H5jU0q_-24" style="edgeStyle=orthogonalEdgeStyle;html=1;labelBackgroundColor=none;endArrow=open;endSize=8;strokeColor=#ff0000;fontFamily=Verdana;fontSize=12;align=left;exitX=0.5;exitY=0;exitDx=0;exitDy=0;entryX=0.5;entryY=1;entryDx=0;entryDy=0;" parent="1" source="VdD3YLYx9Pq02H5jU0q_-49" target="VdD3YLYx9Pq02H5jU0q_-26" edge="1">
          <mxGeometry relative="1" as="geometry">
            <mxPoint x="590" y="120" as="sourcePoint" />
            <mxPoint x="710" y="10" as="targetPoint" />
          </mxGeometry>
        </mxCell>
        <mxCell id="VdD3YLYx9Pq02H5jU0q_-26" value="ERBookingUI" style="rounded=1;whiteSpace=wrap;html=1;arcSize=24;fillColor=#ffffc0;strokeColor=#ff0000;shadow=0;comic=0;labelBackgroundColor=none;fontFamily=Verdana;fontSize=12;fontColor=#000000;align=center;" parent="1" vertex="1">
          <mxGeometry x="525" y="-250" width="120" height="60" as="geometry" />
        </mxCell>
        <mxCell id="VdD3YLYx9Pq02H5jU0q_-29" style="edgeStyle=orthogonalEdgeStyle;html=1;labelBackgroundColor=none;endArrow=open;endSize=8;strokeColor=#ff0000;fontFamily=Verdana;fontSize=12;align=left;exitX=0.5;exitY=0;exitDx=0;exitDy=0;entryX=0.5;entryY=1;entryDx=0;entryDy=0;" parent="1" source="VdD3YLYx9Pq02H5jU0q_-21" target="VdD3YLYx9Pq02H5jU0q_-49" edge="1">
          <mxGeometry relative="1" as="geometry">
            <mxPoint x="400" y="-51.96" as="sourcePoint" />
            <mxPoint x="530" y="-80" as="targetPoint" />
          </mxGeometry>
        </mxCell>
        <mxCell id="9bYLnxyuJk67JNiSMp8e-36" value="&lt;div&gt;Clicks Tab&lt;/div&gt;" style="edgeLabel;html=1;align=center;verticalAlign=middle;resizable=0;points=[];" parent="VdD3YLYx9Pq02H5jU0q_-29" vertex="1" connectable="0">
          <mxGeometry x="0.3407" relative="1" as="geometry">
            <mxPoint y="7" as="offset" />
          </mxGeometry>
        </mxCell>
        <mxCell id="VdD3YLYx9Pq02H5jU0q_-30" value="Check ED Load Status UI" style="rounded=1;whiteSpace=wrap;html=1;arcSize=24;fillColor=#ffffc0;strokeColor=#ff0000;shadow=0;comic=0;labelBackgroundColor=none;fontFamily=Verdana;fontSize=12;fontColor=#000000;align=center;" parent="1" vertex="1">
          <mxGeometry x="330" y="-125.00000000000003" width="120" height="60" as="geometry" />
        </mxCell>
        <mxCell id="VdD3YLYx9Pq02H5jU0q_-34" style="edgeStyle=orthogonalEdgeStyle;html=1;labelBackgroundColor=none;endArrow=open;endSize=8;strokeColor=#ff0000;fontFamily=Verdana;fontSize=12;align=left;entryX=1;entryY=0.5;entryDx=0;entryDy=0;exitX=0;exitY=0.5;exitDx=0;exitDy=0;" parent="1" source="VdD3YLYx9Pq02H5jU0q_-49" target="VdD3YLYx9Pq02H5jU0q_-30" edge="1">
          <mxGeometry relative="1" as="geometry">
            <mxPoint x="540" y="-10" as="sourcePoint" />
            <mxPoint x="460" y="-95" as="targetPoint" />
          </mxGeometry>
        </mxCell>
        <mxCell id="VdD3YLYx9Pq02H5jU0q_-35" value="Account/Personal Info UI" style="rounded=1;whiteSpace=wrap;html=1;arcSize=24;fillColor=#ffffc0;strokeColor=#ff0000;shadow=0;comic=0;labelBackgroundColor=none;fontFamily=Verdana;fontSize=12;fontColor=#000000;align=center;" parent="1" vertex="1">
          <mxGeometry x="525" y="220" width="120" height="60" as="geometry" />
        </mxCell>
        <mxCell id="VdD3YLYx9Pq02H5jU0q_-36" style="edgeStyle=orthogonalEdgeStyle;html=1;labelBackgroundColor=none;endArrow=open;endSize=8;strokeColor=#ff0000;fontFamily=Verdana;fontSize=12;align=left;exitX=0.5;exitY=1;exitDx=0;exitDy=0;entryX=0.5;entryY=0;entryDx=0;entryDy=0;" parent="1" source="VdD3YLYx9Pq02H5jU0q_-47" target="VdD3YLYx9Pq02H5jU0q_-35" edge="1">
          <mxGeometry relative="1" as="geometry">
            <mxPoint x="650" y="150" as="sourcePoint" />
            <mxPoint x="710" y="150" as="targetPoint" />
          </mxGeometry>
        </mxCell>
        <mxCell id="VdD3YLYx9Pq02H5jU0q_-39" style="edgeStyle=orthogonalEdgeStyle;html=1;labelBackgroundColor=none;endArrow=open;endSize=8;strokeColor=#ff0000;fontFamily=Verdana;fontSize=12;align=left;entryX=0.5;entryY=0;entryDx=0;entryDy=0;exitX=0;exitY=0.5;exitDx=0;exitDy=0;" parent="1" source="VdD3YLYx9Pq02H5jU0q_-30" target="382b91b5511bd0f7-6" edge="1">
          <mxGeometry relative="1" as="geometry">
            <mxPoint x="540" y="-10" as="sourcePoint" />
            <mxPoint x="540" y="-90" as="targetPoint" />
          </mxGeometry>
        </mxCell>
        <mxCell id="3F3ILfwRqj9AePYUOEfk-1" value="User clicks Log in/Sign Up" style="edgeLabel;html=1;align=center;verticalAlign=middle;resizable=0;points=[];" parent="VdD3YLYx9Pq02H5jU0q_-39" vertex="1" connectable="0">
          <mxGeometry x="0.0377" y="-4" relative="1" as="geometry">
            <mxPoint x="1" y="-48" as="offset" />
          </mxGeometry>
        </mxCell>
        <mxCell id="VdD3YLYx9Pq02H5jU0q_-40" value="" style="ellipse;html=1;shape=startState;fillColor=#000000;strokeColor=#ff0000;rounded=1;shadow=0;comic=0;labelBackgroundColor=none;fontFamily=Verdana;fontSize=12;fontColor=#000000;align=center;direction=south;" parent="1" vertex="1">
          <mxGeometry x="375" y="-190" width="30" height="30" as="geometry" />
        </mxCell>
        <mxCell id="VdD3YLYx9Pq02H5jU0q_-41" style="edgeStyle=orthogonalEdgeStyle;html=1;labelBackgroundColor=none;endArrow=open;endSize=8;strokeColor=#ff0000;fontFamily=Verdana;fontSize=12;align=left;entryX=0.5;entryY=0;entryDx=0;entryDy=0;" parent="1" source="VdD3YLYx9Pq02H5jU0q_-40" target="VdD3YLYx9Pq02H5jU0q_-30" edge="1">
          <mxGeometry relative="1" as="geometry">
            <mxPoint x="370" y="-135" as="targetPoint" />
          </mxGeometry>
        </mxCell>
        <mxCell id="VdD3YLYx9Pq02H5jU0q_-42" value="User loads page" style="edgeLabel;html=1;align=center;verticalAlign=middle;resizable=0;points=[];" parent="VdD3YLYx9Pq02H5jU0q_-41" vertex="1" connectable="0">
          <mxGeometry x="-0.275" relative="1" as="geometry">
            <mxPoint as="offset" />
          </mxGeometry>
        </mxCell>
        <mxCell id="NMF-H3eIl_iGVr_XC_nz-1" value="" style="edgeStyle=orthogonalEdgeStyle;rounded=0;orthogonalLoop=1;jettySize=auto;html=1;" parent="1" source="VdD3YLYx9Pq02H5jU0q_-47" target="9bYLnxyuJk67JNiSMp8e-69" edge="1">
          <mxGeometry relative="1" as="geometry" />
        </mxCell>
        <mxCell id="VdD3YLYx9Pq02H5jU0q_-47" value="" style="rhombus;whiteSpace=wrap;html=1;fillColor=#f8cecc;strokeColor=#b85450;" parent="1" vertex="1">
          <mxGeometry x="570" y="125" width="30" height="30" as="geometry" />
        </mxCell>
        <mxCell id="VdD3YLYx9Pq02H5jU0q_-48" value="" style="endArrow=classic;html=1;rounded=0;fillColor=#f8cecc;strokeColor=#b85450;entryX=0;entryY=0.5;entryDx=0;entryDy=0;exitX=1;exitY=0.5;exitDx=0;exitDy=0;" parent="1" source="VdD3YLYx9Pq02H5jU0q_-14" target="VdD3YLYx9Pq02H5jU0q_-47" edge="1">
          <mxGeometry width="50" height="50" relative="1" as="geometry">
            <mxPoint x="500" y="140" as="sourcePoint" />
            <mxPoint x="550" y="150" as="targetPoint" />
          </mxGeometry>
        </mxCell>
        <mxCell id="9bYLnxyuJk67JNiSMp8e-1" value="Clicks Tab" style="edgeLabel;html=1;align=center;verticalAlign=middle;resizable=0;points=[];" parent="VdD3YLYx9Pq02H5jU0q_-48" vertex="1" connectable="0">
          <mxGeometry x="-0.237" y="6" relative="1" as="geometry">
            <mxPoint as="offset" />
          </mxGeometry>
        </mxCell>
        <mxCell id="VdD3YLYx9Pq02H5jU0q_-49" value="" style="rhombus;whiteSpace=wrap;html=1;fillColor=#f8cecc;strokeColor=#b85450;" parent="1" vertex="1">
          <mxGeometry x="570" y="-110" width="30" height="30" as="geometry" />
        </mxCell>
        <mxCell id="VdD3YLYx9Pq02H5jU0q_-54" value="Triage Result UI" style="rounded=1;whiteSpace=wrap;html=1;arcSize=24;fillColor=#ffffc0;strokeColor=#ff0000;shadow=0;comic=0;labelBackgroundColor=none;fontFamily=Verdana;fontSize=12;fontColor=#000000;align=center;" parent="1" vertex="1">
          <mxGeometry x="680" y="-125" width="120" height="60" as="geometry" />
        </mxCell>
        <mxCell id="VdD3YLYx9Pq02H5jU0q_-55" style="edgeStyle=orthogonalEdgeStyle;html=1;labelBackgroundColor=none;endArrow=open;endSize=8;strokeColor=#ff0000;fontFamily=Verdana;fontSize=12;align=left;entryX=0;entryY=0.5;entryDx=0;entryDy=0;exitX=1;exitY=0.5;exitDx=0;exitDy=0;" parent="1" source="VdD3YLYx9Pq02H5jU0q_-49" target="VdD3YLYx9Pq02H5jU0q_-54" edge="1">
          <mxGeometry relative="1" as="geometry">
            <mxPoint x="600" y="-90" as="sourcePoint" />
            <mxPoint x="150" y="-305" as="targetPoint" />
          </mxGeometry>
        </mxCell>
        <mxCell id="9bYLnxyuJk67JNiSMp8e-13" style="edgeStyle=orthogonalEdgeStyle;html=1;labelBackgroundColor=none;endArrow=open;endSize=8;strokeColor=#ff0000;fontFamily=Verdana;fontSize=12;align=left;exitX=1;exitY=0.5;exitDx=0;exitDy=0;entryX=0.5;entryY=1;entryDx=0;entryDy=0;" parent="1" source="VdD3YLYx9Pq02H5jU0q_-26" target="9bYLnxyuJk67JNiSMp8e-23" edge="1">
          <mxGeometry relative="1" as="geometry">
            <mxPoint x="470" y="-170" as="sourcePoint" />
            <mxPoint x="770" y="-275" as="targetPoint" />
          </mxGeometry>
        </mxCell>
        <mxCell id="9bYLnxyuJk67JNiSMp8e-14" value="&lt;div&gt;Create ER Booking&lt;/div&gt;&lt;div&gt;(hasSuggestion = TRUE)&lt;br&gt;&lt;/div&gt;" style="edgeLabel;html=1;align=center;verticalAlign=middle;resizable=0;points=[];" parent="9bYLnxyuJk67JNiSMp8e-13" vertex="1" connectable="0">
          <mxGeometry x="0.3582" y="9" relative="1" as="geometry">
            <mxPoint as="offset" />
          </mxGeometry>
        </mxCell>
        <mxCell id="9bYLnxyuJk67JNiSMp8e-18" style="edgeStyle=orthogonalEdgeStyle;html=1;labelBackgroundColor=none;endArrow=open;endSize=8;strokeColor=#ff0000;fontFamily=Verdana;fontSize=12;align=left;exitX=0.5;exitY=0;exitDx=0;exitDy=0;entryX=0.5;entryY=1;entryDx=0;entryDy=0;" parent="1" source="VdD3YLYx9Pq02H5jU0q_-26" target="9bYLnxyuJk67JNiSMp8e-22" edge="1">
          <mxGeometry relative="1" as="geometry">
            <mxPoint x="470" y="-170" as="sourcePoint" />
            <mxPoint x="610" y="-375" as="targetPoint" />
          </mxGeometry>
        </mxCell>
        <mxCell id="9bYLnxyuJk67JNiSMp8e-19" value="&lt;div&gt;Request Booking Info Display&lt;br&gt;&lt;/div&gt;&lt;div&gt;(hasBooking = TRUE)&lt;br&gt;&lt;/div&gt;" style="edgeLabel;html=1;align=center;verticalAlign=middle;resizable=0;points=[];" parent="9bYLnxyuJk67JNiSMp8e-18" vertex="1" connectable="0">
          <mxGeometry x="-0.4366" y="4" relative="1" as="geometry">
            <mxPoint x="34" y="-39" as="offset" />
          </mxGeometry>
        </mxCell>
        <mxCell id="9bYLnxyuJk67JNiSMp8e-22" value="ER Booking Info Displayed" style="rounded=1;whiteSpace=wrap;html=1;arcSize=24;fillColor=#ffffc0;strokeColor=#ff0000;shadow=0;comic=0;labelBackgroundColor=none;fontFamily=Verdana;fontSize=12;fontColor=#000000;align=center;" parent="1" vertex="1">
          <mxGeometry x="525" y="-425" width="120" height="60" as="geometry" />
        </mxCell>
        <mxCell id="9bYLnxyuJk67JNiSMp8e-23" value="ER Booking Request Recieved" style="rounded=1;whiteSpace=wrap;html=1;arcSize=24;fillColor=#ffffc0;strokeColor=#ff0000;shadow=0;comic=0;labelBackgroundColor=none;fontFamily=Verdana;fontSize=12;fontColor=#000000;align=center;" parent="1" vertex="1">
          <mxGeometry x="710" y="-335" width="120" height="60" as="geometry" />
        </mxCell>
        <mxCell id="9bYLnxyuJk67JNiSMp8e-25" style="edgeStyle=orthogonalEdgeStyle;html=1;labelBackgroundColor=none;endArrow=open;endSize=8;strokeColor=#ff0000;fontFamily=Verdana;fontSize=12;align=left;exitX=0.5;exitY=0;exitDx=0;exitDy=0;entryX=0.5;entryY=1;entryDx=0;entryDy=0;" parent="1" source="9bYLnxyuJk67JNiSMp8e-23" target="9bYLnxyuJk67JNiSMp8e-28" edge="1">
          <mxGeometry relative="1" as="geometry">
            <mxPoint x="640" y="-170" as="sourcePoint" />
            <mxPoint x="850" y="-375" as="targetPoint" />
          </mxGeometry>
        </mxCell>
        <mxCell id="9bYLnxyuJk67JNiSMp8e-27" value="Booking confirmed" style="edgeLabel;html=1;align=center;verticalAlign=middle;resizable=0;points=[];" parent="9bYLnxyuJk67JNiSMp8e-25" vertex="1" connectable="0">
          <mxGeometry x="-0.1704" relative="1" as="geometry">
            <mxPoint y="10" as="offset" />
          </mxGeometry>
        </mxCell>
        <mxCell id="9bYLnxyuJk67JNiSMp8e-28" value="ER Booking Confirmation Notification Sent" style="rounded=1;whiteSpace=wrap;html=1;arcSize=24;fillColor=#ffffc0;strokeColor=#ff0000;shadow=0;comic=0;labelBackgroundColor=none;fontFamily=Verdana;fontSize=12;fontColor=#000000;align=center;" parent="1" vertex="1">
          <mxGeometry x="780" y="-455" width="120" height="60" as="geometry" />
        </mxCell>
        <mxCell id="9bYLnxyuJk67JNiSMp8e-29" style="edgeStyle=orthogonalEdgeStyle;html=1;labelBackgroundColor=none;endArrow=open;endSize=8;strokeColor=#ff0000;fontFamily=Verdana;fontSize=12;align=left;exitX=0.5;exitY=0;exitDx=0;exitDy=0;entryX=0.5;entryY=0;entryDx=0;entryDy=0;" parent="1" source="9bYLnxyuJk67JNiSMp8e-28" target="9bYLnxyuJk67JNiSMp8e-22" edge="1">
          <mxGeometry relative="1" as="geometry">
            <mxPoint x="840" y="-470" as="sourcePoint" />
            <mxPoint x="630" y="-440" as="targetPoint" />
          </mxGeometry>
        </mxCell>
        <mxCell id="9bYLnxyuJk67JNiSMp8e-33" style="edgeStyle=orthogonalEdgeStyle;html=1;labelBackgroundColor=none;endArrow=open;endSize=8;strokeColor=#ff0000;fontFamily=Verdana;fontSize=12;align=left;exitX=1;exitY=0.5;exitDx=0;exitDy=0;entryX=0;entryY=0.5;entryDx=0;entryDy=0;" parent="1" target="9bYLnxyuJk67JNiSMp8e-34" edge="1" source="VdD3YLYx9Pq02H5jU0q_-21">
          <mxGeometry relative="1" as="geometry">
            <mxPoint x="643" y="-5" as="sourcePoint" />
            <mxPoint x="778" as="targetPoint" />
          </mxGeometry>
        </mxCell>
        <mxCell id="9bYLnxyuJk67JNiSMp8e-42" value="Request Triage" style="edgeLabel;html=1;align=center;verticalAlign=middle;resizable=0;points=[];" parent="9bYLnxyuJk67JNiSMp8e-33" vertex="1" connectable="0">
          <mxGeometry x="-0.058" relative="1" as="geometry">
            <mxPoint as="offset" />
          </mxGeometry>
        </mxCell>
        <mxCell id="9bYLnxyuJk67JNiSMp8e-34" value="Display Triage Form" style="rounded=1;whiteSpace=wrap;html=1;arcSize=24;fillColor=#ffffc0;strokeColor=#ff0000;shadow=0;comic=0;labelBackgroundColor=none;fontFamily=Verdana;fontSize=12;fontColor=#000000;align=center;" parent="1" vertex="1">
          <mxGeometry x="780" y="-20" width="120" height="60" as="geometry" />
        </mxCell>
        <mxCell id="9bYLnxyuJk67JNiSMp8e-39" style="edgeStyle=orthogonalEdgeStyle;html=1;labelBackgroundColor=none;endArrow=open;endSize=8;strokeColor=#ff0000;fontFamily=Verdana;fontSize=12;align=left;exitX=1;exitY=0.5;exitDx=0;exitDy=0;entryX=0;entryY=0.5;entryDx=0;entryDy=0;" parent="1" source="VdD3YLYx9Pq02H5jU0q_-54" target="9bYLnxyuJk67JNiSMp8e-46" edge="1">
          <mxGeometry relative="1" as="geometry">
            <mxPoint x="655" y="5" as="sourcePoint" />
            <mxPoint x="790" y="10" as="targetPoint" />
          </mxGeometry>
        </mxCell>
        <mxCell id="9bYLnxyuJk67JNiSMp8e-40" value="&lt;div&gt;Request Triage Result&lt;/div&gt;&lt;div&gt;(hasResult = TRUE)&lt;br&gt;&lt;/div&gt;" style="edgeLabel;html=1;align=center;verticalAlign=middle;resizable=0;points=[];" parent="9bYLnxyuJk67JNiSMp8e-39" vertex="1" connectable="0">
          <mxGeometry x="-0.1557" relative="1" as="geometry">
            <mxPoint x="8" y="7" as="offset" />
          </mxGeometry>
        </mxCell>
        <mxCell id="9bYLnxyuJk67JNiSMp8e-46" value="Display Triage Result" style="rounded=1;whiteSpace=wrap;html=1;arcSize=24;fillColor=#ffffc0;strokeColor=#ff0000;shadow=0;comic=0;labelBackgroundColor=none;fontFamily=Verdana;fontSize=12;fontColor=#000000;align=center;" parent="1" vertex="1">
          <mxGeometry x="940" y="-125" width="120" height="60" as="geometry" />
        </mxCell>
        <mxCell id="9bYLnxyuJk67JNiSMp8e-47" value="User Credentials Form Displayed" style="rounded=1;whiteSpace=wrap;html=1;arcSize=24;fillColor=#ffffc0;strokeColor=#ff0000;shadow=0;comic=0;labelBackgroundColor=none;fontFamily=Verdana;fontSize=12;fontColor=#000000;align=center;" parent="1" vertex="1">
          <mxGeometry x="270" y="220" width="120" height="60" as="geometry" />
        </mxCell>
        <mxCell id="9bYLnxyuJk67JNiSMp8e-55" style="edgeStyle=orthogonalEdgeStyle;html=1;labelBackgroundColor=none;endArrow=open;endSize=8;strokeColor=#ff0000;fontFamily=Verdana;fontSize=12;align=left;exitX=0;exitY=0.5;exitDx=0;exitDy=0;entryX=1;entryY=0.5;entryDx=0;entryDy=0;" parent="1" source="VdD3YLYx9Pq02H5jU0q_-35" target="9bYLnxyuJk67JNiSMp8e-47" edge="1">
          <mxGeometry relative="1" as="geometry">
            <mxPoint x="595" y="165" as="sourcePoint" />
            <mxPoint x="595" y="300" as="targetPoint" />
          </mxGeometry>
        </mxCell>
        <mxCell id="9bYLnxyuJk67JNiSMp8e-56" value="Manage User Credential" style="edgeLabel;html=1;align=center;verticalAlign=middle;resizable=0;points=[];" parent="9bYLnxyuJk67JNiSMp8e-55" vertex="1" connectable="0">
          <mxGeometry x="0.1311" y="4" relative="1" as="geometry">
            <mxPoint x="14" y="-14" as="offset" />
          </mxGeometry>
        </mxCell>
        <mxCell id="9bYLnxyuJk67JNiSMp8e-59" style="edgeStyle=orthogonalEdgeStyle;html=1;labelBackgroundColor=none;endArrow=open;endSize=8;strokeColor=#ff0000;fontFamily=Verdana;fontSize=12;align=left;entryX=0.5;entryY=0;entryDx=0;entryDy=0;exitX=0.5;exitY=1;exitDx=0;exitDy=0;" parent="1" source="OtbjJgourQZbi3jSDz1a-32" target="9bYLnxyuJk67JNiSMp8e-63" edge="1">
          <mxGeometry relative="1" as="geometry">
            <mxPoint x="850" y="400" as="sourcePoint" />
            <mxPoint x="370" y="480" as="targetPoint" />
          </mxGeometry>
        </mxCell>
        <mxCell id="9bYLnxyuJk67JNiSMp8e-68" value="Successfull info update" style="edgeLabel;html=1;align=center;verticalAlign=middle;resizable=0;points=[];" parent="9bYLnxyuJk67JNiSMp8e-59" vertex="1" connectable="0">
          <mxGeometry x="-0.1179" y="-2" relative="1" as="geometry">
            <mxPoint as="offset" />
          </mxGeometry>
        </mxCell>
        <mxCell id="9bYLnxyuJk67JNiSMp8e-63" value="&quot;User Health info updated&quot; Display + Notification " style="rounded=1;whiteSpace=wrap;html=1;arcSize=24;fillColor=#ffffc0;strokeColor=#ff0000;shadow=0;comic=0;labelBackgroundColor=none;fontFamily=Verdana;fontSize=12;fontColor=#000000;align=center;" parent="1" vertex="1">
          <mxGeometry x="880" y="470" width="120" height="60" as="geometry" />
        </mxCell>
        <mxCell id="9bYLnxyuJk67JNiSMp8e-69" value="Notification UI" style="rounded=1;whiteSpace=wrap;html=1;arcSize=24;fillColor=#ffffc0;strokeColor=#ff0000;shadow=0;comic=0;labelBackgroundColor=none;fontFamily=Verdana;fontSize=12;fontColor=#000000;align=center;" parent="1" vertex="1">
          <mxGeometry x="660" y="110" width="120" height="60" as="geometry" />
        </mxCell>
        <mxCell id="9bYLnxyuJk67JNiSMp8e-70" style="edgeStyle=orthogonalEdgeStyle;html=1;labelBackgroundColor=none;endArrow=open;endSize=8;strokeColor=#ff0000;fontFamily=Verdana;fontSize=12;align=left;exitX=1;exitY=0.5;exitDx=0;exitDy=0;entryX=0;entryY=0.5;entryDx=0;entryDy=0;" parent="1" source="VdD3YLYx9Pq02H5jU0q_-47" target="9bYLnxyuJk67JNiSMp8e-69" edge="1">
          <mxGeometry relative="1" as="geometry">
            <mxPoint x="595" y="165" as="sourcePoint" />
            <mxPoint x="595" y="300" as="targetPoint" />
          </mxGeometry>
        </mxCell>
        <mxCell id="NMF-H3eIl_iGVr_XC_nz-2" style="edgeStyle=orthogonalEdgeStyle;html=1;labelBackgroundColor=none;endArrow=open;endSize=8;strokeColor=#ff0000;fontFamily=Verdana;fontSize=12;align=left;exitX=1;exitY=0.75;exitDx=0;exitDy=0;entryX=0;entryY=0.75;entryDx=0;entryDy=0;" parent="1" source="9bYLnxyuJk67JNiSMp8e-69" target="NMF-H3eIl_iGVr_XC_nz-3" edge="1">
          <mxGeometry relative="1" as="geometry">
            <mxPoint x="610" y="150" as="sourcePoint" />
            <mxPoint x="910" y="155" as="targetPoint" />
          </mxGeometry>
        </mxCell>
        <mxCell id="NMF-H3eIl_iGVr_XC_nz-4" value="Retrieve Notifications" style="edgeLabel;html=1;align=center;verticalAlign=middle;resizable=0;points=[];" parent="NMF-H3eIl_iGVr_XC_nz-2" vertex="1" connectable="0">
          <mxGeometry x="-0.5476" y="3" relative="1" as="geometry">
            <mxPoint x="41" as="offset" />
          </mxGeometry>
        </mxCell>
        <mxCell id="NMF-H3eIl_iGVr_XC_nz-3" value="Notification Services" style="rounded=1;whiteSpace=wrap;html=1;arcSize=24;fillColor=#ffffc0;strokeColor=#ff0000;shadow=0;comic=0;labelBackgroundColor=none;fontFamily=Verdana;fontSize=12;fontColor=#000000;align=center;" parent="1" vertex="1">
          <mxGeometry x="1000" y="110" width="120" height="60" as="geometry" />
        </mxCell>
        <mxCell id="NMF-H3eIl_iGVr_XC_nz-5" style="edgeStyle=orthogonalEdgeStyle;html=1;labelBackgroundColor=none;endArrow=open;endSize=8;strokeColor=#ff0000;fontFamily=Verdana;fontSize=12;align=left;exitX=0;exitY=0.25;exitDx=0;exitDy=0;entryX=1;entryY=0.25;entryDx=0;entryDy=0;" parent="1" source="NMF-H3eIl_iGVr_XC_nz-3" target="9bYLnxyuJk67JNiSMp8e-69" edge="1">
          <mxGeometry relative="1" as="geometry">
            <mxPoint x="790" y="165" as="sourcePoint" />
            <mxPoint x="1010" y="165" as="targetPoint" />
          </mxGeometry>
        </mxCell>
        <mxCell id="NMF-H3eIl_iGVr_XC_nz-7" value="Display Notifications" style="edgeLabel;html=1;align=center;verticalAlign=middle;resizable=0;points=[];" parent="NMF-H3eIl_iGVr_XC_nz-5" vertex="1" connectable="0">
          <mxGeometry x="0.4015" y="1" relative="1" as="geometry">
            <mxPoint x="27" as="offset" />
          </mxGeometry>
        </mxCell>
        <mxCell id="3F3ILfwRqj9AePYUOEfk-2" style="edgeStyle=orthogonalEdgeStyle;html=1;labelBackgroundColor=none;endArrow=open;endSize=8;strokeColor=#ff0000;fontFamily=Verdana;fontSize=12;align=left;exitX=1;exitY=0.5;exitDx=0;exitDy=0;entryX=0;entryY=0.5;entryDx=0;entryDy=0;" parent="1" source="9bYLnxyuJk67JNiSMp8e-34" target="OtbjJgourQZbi3jSDz1a-4" edge="1">
          <mxGeometry relative="1" as="geometry">
            <mxPoint x="653" y="5" as="sourcePoint" />
            <mxPoint x="1010" as="targetPoint" />
          </mxGeometry>
        </mxCell>
        <mxCell id="3F3ILfwRqj9AePYUOEfk-3" value="Submit Triage Form" style="edgeLabel;html=1;align=center;verticalAlign=middle;resizable=0;points=[];" parent="3F3ILfwRqj9AePYUOEfk-2" vertex="1" connectable="0">
          <mxGeometry x="-0.058" relative="1" as="geometry">
            <mxPoint as="offset" />
          </mxGeometry>
        </mxCell>
        <mxCell id="OtbjJgourQZbi3jSDz1a-4" value="Triage Request recieved Display + Notification " style="rounded=1;whiteSpace=wrap;html=1;arcSize=24;fillColor=#ffffc0;strokeColor=#ff0000;shadow=0;comic=0;labelBackgroundColor=none;fontFamily=Verdana;fontSize=12;fontColor=#000000;align=center;" vertex="1" parent="1">
          <mxGeometry x="1030" y="-20" width="120" height="60" as="geometry" />
        </mxCell>
        <mxCell id="OtbjJgourQZbi3jSDz1a-7" value="&lt;div&gt;ER Booking Cancelled &lt;br&gt;&lt;/div&gt;&lt;div&gt;Display + Notification&lt;br&gt;&lt;/div&gt;" style="rounded=1;whiteSpace=wrap;html=1;arcSize=24;fillColor=#ffffc0;strokeColor=#ff0000;shadow=0;comic=0;labelBackgroundColor=none;fontFamily=Verdana;fontSize=12;fontColor=#000000;align=center;" vertex="1" parent="1">
          <mxGeometry x="360" y="-365" width="120" height="60" as="geometry" />
        </mxCell>
        <mxCell id="OtbjJgourQZbi3jSDz1a-11" style="edgeStyle=orthogonalEdgeStyle;html=1;labelBackgroundColor=none;endArrow=open;endSize=8;strokeColor=#ff0000;fontFamily=Verdana;fontSize=12;align=left;exitX=0;exitY=0.5;exitDx=0;exitDy=0;entryX=0.5;entryY=1;entryDx=0;entryDy=0;" edge="1" parent="1" source="VdD3YLYx9Pq02H5jU0q_-26" target="OtbjJgourQZbi3jSDz1a-7">
          <mxGeometry relative="1" as="geometry">
            <mxPoint x="595" y="-240" as="sourcePoint" />
            <mxPoint x="360" y="-260" as="targetPoint" />
          </mxGeometry>
        </mxCell>
        <mxCell id="OtbjJgourQZbi3jSDz1a-12" value="&lt;div&gt;Request cancel ER Booking &lt;br&gt;&lt;/div&gt;&lt;div&gt;(hasBooking = TRUE)&lt;br&gt;&lt;/div&gt;" style="edgeLabel;html=1;align=center;verticalAlign=middle;resizable=0;points=[];" vertex="1" connectable="0" parent="OtbjJgourQZbi3jSDz1a-11">
          <mxGeometry x="-0.4366" y="4" relative="1" as="geometry">
            <mxPoint x="-32" y="-4" as="offset" />
          </mxGeometry>
        </mxCell>
        <mxCell id="OtbjJgourQZbi3jSDz1a-16" style="edgeStyle=orthogonalEdgeStyle;html=1;labelBackgroundColor=none;endArrow=open;endSize=8;strokeColor=#ff0000;fontFamily=Verdana;fontSize=12;align=left;exitX=1;exitY=0.5;exitDx=0;exitDy=0;entryX=0.5;entryY=0;entryDx=0;entryDy=0;" edge="1" parent="1" source="VdD3YLYx9Pq02H5jU0q_-35" target="OtbjJgourQZbi3jSDz1a-23">
          <mxGeometry relative="1" as="geometry">
            <mxPoint x="595" y="360" as="sourcePoint" />
            <mxPoint x="750" y="320" as="targetPoint" />
          </mxGeometry>
        </mxCell>
        <mxCell id="OtbjJgourQZbi3jSDz1a-17" value="Display User Health Info" style="edgeLabel;html=1;align=center;verticalAlign=middle;resizable=0;points=[];" vertex="1" connectable="0" parent="OtbjJgourQZbi3jSDz1a-16">
          <mxGeometry x="0.1311" y="4" relative="1" as="geometry">
            <mxPoint y="-6" as="offset" />
          </mxGeometry>
        </mxCell>
        <mxCell id="OtbjJgourQZbi3jSDz1a-23" value="Current User Health Info Displayed" style="rounded=1;whiteSpace=wrap;html=1;arcSize=24;fillColor=#ffffc0;strokeColor=#ff0000;shadow=0;comic=0;labelBackgroundColor=none;fontFamily=Verdana;fontSize=12;fontColor=#000000;align=center;" vertex="1" parent="1">
          <mxGeometry x="690" y="260" width="120" height="60" as="geometry" />
        </mxCell>
        <mxCell id="OtbjJgourQZbi3jSDz1a-24" style="edgeStyle=orthogonalEdgeStyle;html=1;labelBackgroundColor=none;endArrow=open;endSize=8;strokeColor=#ff0000;fontFamily=Verdana;fontSize=12;align=left;exitX=0.5;exitY=1;exitDx=0;exitDy=0;entryX=0.5;entryY=0;entryDx=0;entryDy=0;" edge="1" parent="1" target="OtbjJgourQZbi3jSDz1a-26" source="9bYLnxyuJk67JNiSMp8e-47">
          <mxGeometry relative="1" as="geometry">
            <mxPoint x="341" y="290" as="sourcePoint" />
            <mxPoint x="341" y="340" as="targetPoint" />
          </mxGeometry>
        </mxCell>
        <mxCell id="OtbjJgourQZbi3jSDz1a-25" value="Successfull credentials update" style="edgeLabel;html=1;align=center;verticalAlign=middle;resizable=0;points=[];" vertex="1" connectable="0" parent="OtbjJgourQZbi3jSDz1a-24">
          <mxGeometry x="-0.1179" y="-2" relative="1" as="geometry">
            <mxPoint as="offset" />
          </mxGeometry>
        </mxCell>
        <mxCell id="OtbjJgourQZbi3jSDz1a-26" value="&quot;User credentials updated&quot; Display + Notification " style="rounded=1;whiteSpace=wrap;html=1;arcSize=24;fillColor=#ffffc0;strokeColor=#ff0000;shadow=0;comic=0;labelBackgroundColor=none;fontFamily=Verdana;fontSize=12;fontColor=#000000;align=center;" vertex="1" parent="1">
          <mxGeometry x="270" y="340" width="120" height="60" as="geometry" />
        </mxCell>
        <mxCell id="OtbjJgourQZbi3jSDz1a-27" style="edgeStyle=orthogonalEdgeStyle;html=1;labelBackgroundColor=none;endArrow=open;endSize=8;strokeColor=#ff0000;fontFamily=Verdana;fontSize=12;align=left;exitX=0.5;exitY=1;exitDx=0;exitDy=0;entryX=0.5;entryY=0;entryDx=0;entryDy=0;" edge="1" parent="1" source="OtbjJgourQZbi3jSDz1a-26" target="OtbjJgourQZbi3jSDz1a-28">
          <mxGeometry relative="1" as="geometry">
            <mxPoint x="350" y="300" as="sourcePoint" />
            <mxPoint x="340" y="470" as="targetPoint" />
          </mxGeometry>
        </mxCell>
        <mxCell id="OtbjJgourQZbi3jSDz1a-28" value="Return to previous UI" style="rounded=1;whiteSpace=wrap;html=1;arcSize=24;fillColor=#ffffc0;strokeColor=#ff0000;shadow=0;comic=0;labelBackgroundColor=none;fontFamily=Verdana;fontSize=12;fontColor=#000000;align=center;" vertex="1" parent="1">
          <mxGeometry x="270" y="425" width="120" height="60" as="geometry" />
        </mxCell>
        <mxCell id="OtbjJgourQZbi3jSDz1a-32" value="User Health Info Form Displayed" style="rounded=1;whiteSpace=wrap;html=1;arcSize=24;fillColor=#ffffc0;strokeColor=#ff0000;shadow=0;comic=0;labelBackgroundColor=none;fontFamily=Verdana;fontSize=12;fontColor=#000000;align=center;" vertex="1" parent="1">
          <mxGeometry x="880" y="350" width="120" height="60" as="geometry" />
        </mxCell>
        <mxCell id="OtbjJgourQZbi3jSDz1a-33" style="edgeStyle=orthogonalEdgeStyle;html=1;labelBackgroundColor=none;endArrow=open;endSize=8;strokeColor=#ff0000;fontFamily=Verdana;fontSize=12;align=left;exitX=0.5;exitY=1;exitDx=0;exitDy=0;entryX=0.5;entryY=0;entryDx=0;entryDy=0;" edge="1" parent="1" source="OtbjJgourQZbi3jSDz1a-23" target="OtbjJgourQZbi3jSDz1a-32">
          <mxGeometry relative="1" as="geometry">
            <mxPoint x="535" y="260" as="sourcePoint" />
            <mxPoint x="400" y="260" as="targetPoint" />
          </mxGeometry>
        </mxCell>
        <mxCell id="OtbjJgourQZbi3jSDz1a-34" value="Manage User Credential" style="edgeLabel;html=1;align=center;verticalAlign=middle;resizable=0;points=[];" vertex="1" connectable="0" parent="OtbjJgourQZbi3jSDz1a-33">
          <mxGeometry x="0.1311" y="4" relative="1" as="geometry">
            <mxPoint x="14" y="-14" as="offset" />
          </mxGeometry>
        </mxCell>
        <mxCell id="OtbjJgourQZbi3jSDz1a-35" value="Current Username/Email Displayed" style="rounded=1;whiteSpace=wrap;html=1;arcSize=24;fillColor=#ffffc0;strokeColor=#ff0000;shadow=0;comic=0;labelBackgroundColor=none;fontFamily=Verdana;fontSize=12;fontColor=#000000;align=center;" vertex="1" parent="1">
          <mxGeometry x="525" y="340" width="120" height="60" as="geometry" />
        </mxCell>
        <mxCell id="OtbjJgourQZbi3jSDz1a-37" style="edgeStyle=orthogonalEdgeStyle;html=1;labelBackgroundColor=none;endArrow=open;endSize=8;strokeColor=#ff0000;fontFamily=Verdana;fontSize=12;align=left;exitX=0.5;exitY=1;exitDx=0;exitDy=0;entryX=0.5;entryY=0;entryDx=0;entryDy=0;" edge="1" parent="1" source="VdD3YLYx9Pq02H5jU0q_-35" target="OtbjJgourQZbi3jSDz1a-35">
          <mxGeometry relative="1" as="geometry">
            <mxPoint x="655" y="260" as="sourcePoint" />
            <mxPoint x="760" y="270" as="targetPoint" />
          </mxGeometry>
        </mxCell>
        <mxCell id="OtbjJgourQZbi3jSDz1a-38" value="Display User Credentials Info" style="edgeLabel;html=1;align=center;verticalAlign=middle;resizable=0;points=[];" vertex="1" connectable="0" parent="OtbjJgourQZbi3jSDz1a-37">
          <mxGeometry x="0.1311" y="4" relative="1" as="geometry">
            <mxPoint y="-6" as="offset" />
          </mxGeometry>
        </mxCell>
        <mxCell id="OtbjJgourQZbi3jSDz1a-39" style="edgeStyle=orthogonalEdgeStyle;html=1;labelBackgroundColor=none;endArrow=open;endSize=8;strokeColor=#ff0000;fontFamily=Verdana;fontSize=12;align=left;entryX=0.5;entryY=0;entryDx=0;entryDy=0;exitX=0.75;exitY=1;exitDx=0;exitDy=0;" edge="1" parent="1" source="382b91b5511bd0f7-6" target="9bYLnxyuJk67JNiSMp8e-47">
          <mxGeometry relative="1" as="geometry">
            <mxPoint x="170" y="180" as="sourcePoint" />
            <mxPoint x="280" y="260" as="targetPoint" />
          </mxGeometry>
        </mxCell>
        <mxCell id="OtbjJgourQZbi3jSDz1a-40" value="Clicks Forgot password" style="edgeLabel;html=1;align=center;verticalAlign=middle;resizable=0;points=[];" vertex="1" connectable="0" parent="OtbjJgourQZbi3jSDz1a-39">
          <mxGeometry x="-0.275" relative="1" as="geometry">
            <mxPoint x="1" y="2" as="offset" />
          </mxGeometry>
        </mxCell>
      </root>
    </mxGraphModel>
  </diagram>
</mxfile>
